<?xml version="1.0" ?>
<!-- Uploaded to: SVG Repo, www.svgrepo.com, Generator: SVG Repo Mixer Tools -->
<svg fill="#000000" width="800px" height="800px" viewBox="0 0 64 64" xmlns="http://www.w3.org/2000/svg">
<g data-name="Layer 39" id="Layer_39">
<path d="M32,3A29,29,0,1,0,61,32,29,29,0,0,0,32,3Zm0,56A27,27,0,1,1,59,32,27,27,0,0,1,32,59ZM46.5,34A11.81,11.81,0,0,1,34.7,45.8H32a1,1,0,0,1,0-2h2.7A9.82,9.82,0,0,0,44.5,34a1,1,0,0,1,2,0ZM28,21H13a1,1,0,0,0,0,2h3.09a6,6,0,0,0,11.82,0H28a1,1,0,0,0,0-2Zm-6,5a4,4,0,0,1-3.86-3h7.72A4,4,0,0,1,22,26Zm29-5H35a1,1,0,0,0,0,2h4.09a6,6,0,0,0,11.82,0H51a1,1,0,0,0,0-2Zm-6,5a4,4,0,0,1-3.86-3h7.72A4,4,0,0,1,45,26Z"/>
</g>
</svg>